<svg xmlns="http://www.w3.org/2000/svg" viewBox="0 0 720 203.34"><defs><style>.cls-1{fill:#94bbb8;}.cls-2{fill:#e4f7f4;}.cls-3{fill:#fff;}.cls-4{fill:gray;}</style></defs><g id="Layer_2" data-name="Layer 2"><g id="Layer_1-2" data-name="Layer 1"><polygon class="cls-1" points="95.89 27.68 95.89 83.04 53.49 58.55 53.49 0 0.01 30.88 0.01 85.06 0 85.06 0 144.79 53.49 175.66 53.49 120.31 95.89 144.79 95.89 198.55 95.89 198.55 95.89 203.34 149.37 172.47 149.37 120.31 149.37 115.51 149.37 113.91 149.37 60.15 149.37 58.55 95.89 27.68"/><polygon class="cls-2" points="93.11 87.83 87.28 91.2 53.48 110.72 53.48 64.95 91.32 86.79 93.11 87.83"/><polygon class="cls-2" points="56.26 115.51 95.89 92.63 95.89 138.4 89.63 134.78 56.26 115.51"/><polygon class="cls-3" points="8.31 87.83 47.95 64.95 47.95 110.72 18.3 93.6 8.31 87.83"/><polygon class="cls-2" points="101.43 92.63 141.06 115.51 101.43 138.4 101.43 92.63"/><polygon class="cls-2" points="109.91 91.13 104.19 87.83 112.03 83.31 143.83 64.95 143.83 110.72 109.91 91.13"/><polygon class="cls-3" points="47.95 55.36 8.31 32.47 47.95 9.59 47.95 55.36"/><polygon class="cls-3" points="45.18 60.15 5.55 83.03 5.55 37.27 45.18 60.15"/><polygon class="cls-3" points="5.55 92.63 13.96 97.48 45.18 115.52 5.54 138.4 5.55 92.63"/><polygon class="cls-3" points="47.95 120.31 47.95 166.07 8.31 143.19 47.95 120.31"/><polygon class="cls-2" points="104.19 143.19 143.83 120.31 143.83 166.08 135.64 161.35 104.19 143.19"/><polygon class="cls-3" points="141.06 60.15 101.43 83.04 101.43 37.27 141.06 60.15"/><polygon class="cls-2" points="101.43 147.99 118.7 157.96 141.06 170.87 101.43 193.75 101.43 147.99"/><path class="cls-4" d="M231.39,126.7H220.06v-30H185.4v30H174.08V56.22H185.4V85.94h34.66V56.22h11.33Z"/><path class="cls-4" d="M251.87,125.87a17.76,17.76,0,0,1-6.93-4.79l4.55-6.1q5.13,5,10.46,5a9.23,9.23,0,0,0,4.79-1.12,3.62,3.62,0,0,0,1.89-3.34,3.8,3.8,0,0,0-1.94-3.48,19.3,19.3,0,0,0-4.3-1.89l-3.05-.92a16.23,16.23,0,0,1-7.94-4.79,11.21,11.21,0,0,1-2.62-7.41,12.34,12.34,0,0,1,6.83-11.13A17.49,17.49,0,0,1,262,84.1a27.49,27.49,0,0,1,8.09,1.07,20.34,20.34,0,0,1,6.44,3.38L272.34,95a12.71,12.71,0,0,0-4.21-2.61,12.35,12.35,0,0,0-4.5-1,7,7,0,0,0-4.16,1.16,3.53,3.53,0,0,0-1.65,3A3.47,3.47,0,0,0,259.47,99a25.69,25.69,0,0,0,5.61,2.37c1.1.33,1.81.55,2.13.68a18.07,18.07,0,0,1,7.55,4.31,9.83,9.83,0,0,1,2.71,7.21,13.14,13.14,0,0,1-4.3,10q-4.32,4-12.35,4A23.71,23.71,0,0,1,251.87,125.87Z"/><path class="cls-4" d="M290.93,67a6.43,6.43,0,0,1,4.36-1.69A6.14,6.14,0,0,1,299.5,67a5.34,5.34,0,0,1,1.89,4.12,5.16,5.16,0,0,1-1.89,4.06,6.24,6.24,0,0,1-4.21,1.65,6.54,6.54,0,0,1-4.36-1.65A5.12,5.12,0,0,1,289,71.13,5.3,5.3,0,0,1,290.93,67Zm9.39,18.74v41H289.48V85.75Z"/><path class="cls-4" d="M351.48,87.44a11.7,11.7,0,0,1,3.93,8.86v30.4H344.56V100.17a7.86,7.86,0,0,0-1.89-5,6.84,6.84,0,0,0-5.08-1.94,9.94,9.94,0,0,0-8.27,4.31,17.71,17.71,0,0,0-3.25,11v18.2H315.23V85.75H325l.77,7.26a15.89,15.89,0,0,1,6.44-6.63A19.4,19.4,0,0,1,342,84,13.73,13.73,0,0,1,351.48,87.44Z"/><path class="cls-4" d="M409.14,85.75l-26.43,60.6H372.06L381.64,125l-19-39.21h12.2l12.2,27.1,12.2-27.1Z"/><path class="cls-4" d="M457.45,85.75v41h-9.78l-.68-7.36A16.11,16.11,0,0,1,440.7,126a18.22,18.22,0,0,1-9.49,2.47,13.25,13.25,0,0,1-9.34-3.44,11.8,11.8,0,0,1-3.83-8.85V85.75h10.84v26.52q.3,6.78,6.69,6.88a9.44,9.44,0,0,0,7.89-4.36,18.24,18.24,0,0,0,3.14-10.94V85.75Z"/><path class="cls-4" d="M561.91,56.22l-26.43,47.63V126.7H524.24V103.85l-26-47.63h13.85L530.25,91l17.81-34.75Z"/><path class="cls-4" d="M605.57,85.75v41H594.72v-5.91a22.33,22.33,0,0,1-6,4.79,17.21,17.21,0,0,1-8.81,2.18,22.11,22.11,0,0,1-10.55-2.47A18,18,0,0,1,562,118a23.64,23.64,0,0,1-2.71-11.72,24,24,0,0,1,2.81-11.76,20,20,0,0,1,17.81-10.6q10,0,14.91,7.35l.78-5.51Zm-15.15,30.83a12,12,0,0,0,4.3-6.44v-8.9a11.27,11.27,0,0,0-4.5-6.1,13.12,13.12,0,0,0-7.69-2.33,11.78,11.78,0,0,0-8.72,3.63,12.66,12.66,0,0,0-3.58,9.25,13.15,13.15,0,0,0,6.39,11.42,11.94,11.94,0,0,0,6.29,1.75A12.21,12.21,0,0,0,590.42,116.58Z"/><path class="cls-4" d="M656.83,87.44a11.65,11.65,0,0,1,3.92,8.86v30.4H649.91V100.17a7.86,7.86,0,0,0-1.89-5,6.86,6.86,0,0,0-5.08-1.94,10,10,0,0,0-8.28,4.31,17.77,17.77,0,0,0-3.24,11v18.2H620.57V85.75h9.78l.78,7.26a15.92,15.92,0,0,1,6.43-6.63A19.43,19.43,0,0,1,647.29,84,13.75,13.75,0,0,1,656.83,87.44Z"/><path class="cls-4" d="M720,85.75v41.14a18.25,18.25,0,0,1-3,10.31,20.84,20.84,0,0,1-8.52,7.26,27.78,27.78,0,0,1-12.34,2.67A26.24,26.24,0,0,1,685,145a38.5,38.5,0,0,1-9-6l6.39-7.45a26.73,26.73,0,0,0,6.29,4.5,16,16,0,0,0,7.26,1.6q6,0,9.59-2.95a10.14,10.14,0,0,0,3.68-8v-6.88a15.32,15.32,0,0,1-6.35,5.76,21,21,0,0,1-9.82,2.18,19.73,19.73,0,0,1-10.36-2.85,21.06,21.06,0,0,1-7.55-7.84,23.16,23.16,0,0,1,.14-22.37,21.59,21.59,0,0,1,7.85-7.94,20.28,20.28,0,0,1,10.4-2.85,23.5,23.5,0,0,1,9.34,1.79,14.83,14.83,0,0,1,6.35,4.69l.87-4.64Zm-15.64,30.78a12.16,12.16,0,0,0,4.8-6.29v-8.91a12.12,12.12,0,0,0-4.84-6.19,14.35,14.35,0,0,0-8.14-2.33,12.71,12.71,0,0,0-9.24,3.63,12.35,12.35,0,0,0-3.73,9.25,13,13,0,0,0,6.44,11.42,12.55,12.55,0,0,0,6.53,1.75A14.25,14.25,0,0,0,704.36,116.53Z"/></g></g></svg>