<?xml version="1.0" standalone="no"?>
<!DOCTYPE svg PUBLIC "-//W3C//DTD SVG 20010904//EN"
 "http://www.w3.org/TR/2001/REC-SVG-20010904/DTD/svg10.dtd">
<svg version="1.0" xmlns="http://www.w3.org/2000/svg"
 width="295.000000pt" height="295.000000pt" viewBox="0 0 295.000000 295.000000"
 preserveAspectRatio="xMidYMid meet">
<metadata>
Created by potrace 1.11, written by Peter Selinger 2001-2013
</metadata>
<g transform="translate(0.000000,295.000000) scale(0.100000,-0.100000)"
fill="#000000" stroke="none">
<path d="M1136 2932 c-2 -4 -24 -18 -48 -30 -24 -13 -57 -31 -74 -41 -17 -10
-161 -94 -320 -186 -159 -92 -292 -172 -295 -177 -4 -6 -6 -379 -5 -830 l1
-819 200 -116 c110 -63 277 -159 370 -214 94 -54 177 -101 186 -104 15 -6 17
28 17 385 0 216 2 393 4 395 2 2 35 -14 73 -37 107 -62 445 -257 490 -283 l40
-23 1 -416 c1 -229 4 -419 7 -422 4 -4 316 169 407 226 8 5 60 35 115 67 55
32 108 62 117 68 9 5 42 23 72 40 l56 29 -2 830 -3 831 -115 67 c-63 37 -126
74 -140 81 -14 7 -132 75 -262 150 -130 75 -241 137 -245 137 -4 0 -7 -178 -7
-395 l2 -394 -22 11 c-11 6 -95 54 -186 106 -91 52 -179 103 -196 112 -110 62
-196 115 -201 123 -3 5 -5 196 -5 423 0 342 -2 414 -13 414 -8 0 -16 -4 -19
-8z"/>
</g>
</svg>
